<svg xmlns="http://www.w3.org/2000/svg" xmlns:xlink="http://www.w3.org/1999/xlink" version="1.1" width="1000" height="1000" viewBox="0 0 1000 1000" xml:space="preserve">
<desc>Created with Fabric.js 3.5.0</desc>
<defs>
</defs>
<rect x="0" y="0" width="100%" height="100%" fill="rgba(255,255,255,0)"/>
<g transform="matrix(7.7188 0 0 8.8409 507.8475 382.2506)" id="799195">
<path style="stroke: none; stroke-width: 1; stroke-dasharray: none; stroke-linecap: butt; stroke-dashoffset: 0; stroke-linejoin: miter; stroke-miterlimit: 4; is-custom-font: none; font-file-url: none; fill: rgb(254,15,28); fill-rule: nonzero; opacity: 1;" transform=" translate(-25.395, -41.7309)" d="M 0 0 C 1.66472197 0.00306456 3.32944652 0.00493537 4.99417114 0.00567627 C 8.47228927 0.0102604 11.95017344 0.02460899 15.42822266 0.046875 C 19.85823863 0.07511107 24.28807082 0.08608513 28.71816826 0.0905571 C 32.97880185 0.09574606 37.23939076 0.11025816 41.5 0.125 C 42.2985931 0.12688072 43.0971862 0.12876144 43.9199791 0.13069916 C 71.85273922 0.21567157 71.85273922 0.21567157 80.7578125 7.765625 C 86.70768032 15.78344979 85.19906731 29.50460024 85.14355469 39.12109375 C 85.13282381 41.32580041 85.14352315 43.52969266 85.15625 45.734375 C 85.18186311 70.50415351 85.18186311 70.50415351 78.8828125 77.328125 C 72.69424908 82.17134855 67.1793739 83.57954905 59.3996582 83.57104492 C 58.6751799 83.57294327 57.9507016 83.57484161 57.20426941 83.57679749 C 54.82226541 83.58048494 52.44057044 83.56982416 50.05859375 83.55859375 C 48.38958268 83.55739993 46.72057093 83.55694922 45.05155945 83.5572052 C 41.55557029 83.55564345 38.05968398 83.54738163 34.5637207 83.53393555 C 30.11008317 83.51701235 25.65655917 83.51311966 21.20289326 83.51388073 C 17.75480592 83.51360697 14.30674278 83.50809196 10.85866356 83.50087929 C 9.2182248 83.49772344 7.57778332 83.49573253 5.93734169 83.49498558 C -21.3847921 83.46893756 -21.3847921 83.46893756 -28.1171875 78.328125 C -35.93881404 69.06567252 -34.46674347 52.4784967 -34.43286133 40.90209961 C -34.42967472 38.63152091 -34.4533782 36.36221859 -34.47851562 34.09179688 C -34.56735813 13.64122432 -34.56735813 13.64122432 -28.9921875 5.765625 C -20.76171157 -1.2123872 -10.14322738 -0.08204387 0 0 Z" stroke-linecap="round"/>
</g>
<g transform="matrix(11.2873 0 0 6.2571 533.4013 381.2084)" id="120026">
<path style="stroke: none; stroke-width: 1; stroke-dasharray: none; stroke-linecap: butt; stroke-dashoffset: 0; stroke-linejoin: miter; stroke-miterlimit: 4; is-custom-font: none; font-file-url: none; fill: rgb(254,250,250); fill-rule: nonzero; opacity: 1;" transform=" translate(-16.5, -18.5)" d="M 0 0 C 4.92802623 0.82133771 6.94880504 1.23986165 10.96875 3.58203125 C 11.86980469 4.10216797 12.77085938 4.62230469 13.69921875 5.15820312 C 14.62347656 5.70412109 15.54773438 6.25003906 16.5 6.8125 C 17.42425781 7.34681641 18.34851563 7.88113281 19.30078125 8.43164062 C 23.97127494 11.14774318 28.54943214 13.93652579 33 17 C 32.8359375 18.7890625 32.8359375 18.7890625 32 21 C 29.6640625 22.7109375 29.6640625 22.7109375 26.625 24.375 C 25.54347656 24.97570312 24.46195313 25.57640625 23.34765625 26.1953125 C 22.24292969 26.79085937 21.13820313 27.38640625 20 28 C 18.98808594 28.55429688 17.97617188 29.10859375 16.93359375 29.6796875 C 15.11689829 30.67330869 13.29696683 31.66105552 11.47265625 32.640625 C 8.94669963 33.98923503 8.94669963 33.98923503 6.43359375 35.671875 C 4 37 4 37 0 37 C 0 24.79 0 12.58 0 0 Z" stroke-linecap="round"/>
</g>
</svg>